<?xml version="1.0" standalone="no"?>
<!DOCTYPE svg PUBLIC "-//W3C//DTD SVG 20010904//EN"
 "http://www.w3.org/TR/2001/REC-SVG-20010904/DTD/svg10.dtd">
<svg version="1.0" xmlns="http://www.w3.org/2000/svg"
 width="1350.000000pt" height="1350.000000pt" viewBox="0 0 1350.000000 1350.000000"
 preserveAspectRatio="xMidYMid meet">
<metadata>
Created by potrace 1.16, written by Peter Selinger 2001-2019
</metadata>
<g transform="translate(0.000000,1350.000000) scale(0.100000,-0.100000)"
fill="#000000" stroke="none">
<path d="M8430 11355 c-888 -178 -1630 -326 -1647 -330 l-33 -6 0 -3214 0
-3215 -717 0 c-773 0 -803 -2 -983 -54 -236 -68 -429 -186 -606 -368 -179
-184 -286 -372 -349 -611 -43 -165 -47 -225 -42 -682 3 -362 6 -442 21 -505
141 -608 621 -1037 1231 -1100 167 -18 824 -7 935 14 274 54 510 178 711 373
171 166 282 340 353 553 76 229 70 -66 73 3201 l3 2926 1348 270 1347 269 3
1402 c2 1331 1 1402 -15 1401 -10 -1 -745 -147 -1633 -324z m1020 -1200 c0
-415 -2 -755 -4 -755 -2 0 -461 -92 -1021 -205 -559 -113 -1023 -205 -1031
-205 -12 0 -14 116 -14 753 l0 752 1023 207 c562 113 1028 207 1035 207 9 1
12 -156 12 -754z m-2702 -6897 c-4 -760 -4 -760 -61 -893 -74 -176 -236 -338
-413 -412 -123 -53 -173 -58 -559 -58 -314 0 -370 2 -438 18 -286 67 -509 289
-579 577 -19 80 -19 777 1 875 56 276 314 531 582 575 41 6 81 13 89 15 8 1
322 3 698 4 l683 1 -3 -702z"/>
</g>
</svg>
